<svg xmlns="http://www.w3.org/2000/svg" viewBox="0 0 16 16">
    <path d="M 6.46875 1 A 0.50005 0.50005 0 0 0 6 1.5 L 6 2.375 C 6 3.5782168 5.6709145 4.4589043 5.4082031 5 L 1 5 L 1 5.5 L 1 14 L 5.4648438 14 L 6 14 L 11.689453 14 C 12.401791 14 13.03169 13.512224 13.185547 12.818359 A 0.50005 0.50005 0 0 0 13.193359 12.775391 L 13.994141 6.7753906 L 13.986328 6.8183594 C 14.192606 5.8871169 13.445053 5 12.490234 5 L 9 5 L 9 3.25 C 9 2.1347222 8.3117537 1.4625874 7.6875 1.2089844 C 7.0632463 0.95538128 6.46875 1 6.46875 1 z M 7 2.0800781 C 7.1318795 2.0988741 7.1621385 2.0736786 7.3125 2.1347656 C 7.6882463 2.2874131 8 2.4902778 8 3.25 L 8 5.5 A 0.50005 0.50005 0 0 0 8.5 6 L 12.490234 6 C 12.849416 6 13.079487 6.2868068 13.009766 6.6015625 A 0.50005 0.50005 0 0 0 13.001953 6.6445312 L 12.207031 12.603516 C 12.155768 12.828253 11.94803 13 11.689453 13 L 6 13 L 6 6.0195312 C 6.2254734 5.6703684 7 4.3403823 7 2.375 L 7 2.0800781 z M 2 6 L 5 6 L 5 13 L 2 13 L 2 6 z M 3.5 11 A 0.5 0.5 0 0 0 3 11.5 A 0.5 0.5 0 0 0 3.5 12 A 0.5 0.5 0 0 0 4 11.5 A 0.5 0.5 0 0 0 3.5 11 z"/>
</svg>
